<svg id="fish_group" xmlns="http://www.w3.org/2000/svg" viewBox="0 0 920.67 540.54"><defs><style>.cls-1{fill:#8b7417;}.cls-2{fill:#e5bd92;}.cls-3{fill:#c39d6e;}.cls-4{fill:#fff;}.cls-5{fill:#94e0f1;}.cls-6{fill:#e3f0ff;}.cls-7{fill:#cde6ff;}.cls-8{fill:#d7671e;}.cls-9{fill:#f7c191;}.cls-10{fill:#f7aa75;}.cls-11{fill:#f1e033;}.cls-12{fill:#f1e3b8;}.cls-13{fill:#f1d99a;}</style></defs><g id="Layer_1" data-name="Layer 1"><path class="cls-1" d="M694,652.4c-13-14.06-43.56-36.66-81-49.68a181.61,181.61,0,0,0-41.45-9.4c-6.7-7.93-20.34-20.21-46.93-32.64C511.84,587.6,486.21,591,471.79,591c-2.35,1.57-4.7,5.44-6.49,9-31.9,5.14-59.91,12.49-80.52,20.49-20.43-4.79-62.75-16.11-87.59-32.67,3.2,19.22,27.23,44.85,38.44,56.06,0,0-35.24,20.54-38.44,48.35,18.39-10.28,69.1-16.82,86.75-18.84,8.32,4.19,17.79,8.53,28.08,12.84,8.72,17.12,29.13,18.86,53.36,34.54,6.88-1.72,14.67-5.74,20.42-9.1a446.8,446.8,0,0,0,49.46,10.74c-3.18,4.77-8.55,13.24-7.41,14.38,2.41,3.61,23.8-6.34,34.3-11.52,3.59.2,7.12.31,10.56.31a234.94,234.94,0,0,0,33.9-2.35c69.9-10.16,94.24-50.35,94.24-60.13C700.85,660.94,698.44,657.16,694,652.4Z" transform="translate(-96.33 -196.96)"/></g><g id="Layer_1_copy_5" data-name="Layer 1 copy 5"><path class="cls-1" d="M577.51,602.17s-8-20.51-52.86-41.49C511.84,587.6,486.21,591,471.79,591c-4.81,3.2-9.61,16-9.61,16Z" transform="translate(-96.33 -196.96)"/><path class="cls-1" d="M494.22,706.29s-16,11.22-28.84,14.42c-27.23-17.62-49.66-17.62-56.06-41.65C439.75,682.27,494.22,706.29,494.22,706.29Z" transform="translate(-96.33 -196.96)"/><path class="cls-1" d="M567.9,722.31s-36.84,19.22-40,14.42c-1.6-1.6,9.62-17.62,9.62-17.62Z" transform="translate(-96.33 -196.96)"/><path class="cls-1" d="M335.63,643.82c-11.21-11.21-35.24-36.84-38.44-56.06C330.83,610.18,396.5,623,396.5,623l-6.4,49.65s-70.49,7-92.91,19.52C300.39,664.36,335.63,643.82,335.63,643.82Z" transform="translate(-96.33 -196.96)"/><path class="cls-2" d="M348.45,647c0,17.62,139.36,78.49,224.26,78.49a234.94,234.94,0,0,0,33.9-2.35c6.67-16.37,15-41.15,15.7-63.7Z" transform="translate(-96.33 -196.96)"/><path class="cls-3" d="M622.36,656.64c0-16.65-4.75-37.62-9.33-53.92-17.61-6.14-36.76-10.16-56.34-10.16-107.33,0-208.24,32-208.24,54.47l273.86,12.44C622.34,658.52,622.36,657.58,622.36,656.64Z" transform="translate(-96.33 -196.96)"/><path class="cls-1" d="M694,652.4c-13-14.06-43.56-36.66-81-49.68,4.58,16.3,9.33,37.27,9.33,53.92,0,.94,0,1.88-.05,2.83-.67,22.55-9,47.33-15.7,63.7,69.9-10.16,94.24-50.35,94.24-60.13C700.85,660.94,698.44,657.16,694,652.4Z" transform="translate(-96.33 -196.96)"/><path class="cls-1" d="M588.72,685.47c0-10.26-43.25,12.81-65.67,12.81,12.81,4.81,32,8,40.05,9.62C571.1,703.09,588.72,691.88,588.72,685.47Z" transform="translate(-96.33 -196.96)"/><ellipse class="cls-4" cx="552.86" cy="451.27" rx="9.21" ry="13.22"/><ellipse class="cls-1" cx="555.12" cy="451.27" rx="4.61" ry="7.34"/><path class="cls-1" d="M550.74,614.68c-15.37-1.81-18.1,11.83-1.41,14.05C528.88,634.05,526.91,607.39,550.74,614.68Z" transform="translate(-96.33 -196.96)"/><path class="cls-1" d="M536.06,646.49c-15.41-1.57-17.93,12.12-1.19,14.08C514.49,666.21,512.1,639.56,536.06,646.49Z" transform="translate(-96.33 -196.96)"/><path class="cls-1" d="M507.08,616c-17.62,3.2-16,19.22,3.21,16C489.46,644.79,478.25,616,507.08,616Z" transform="translate(-96.33 -196.96)"/><path class="cls-1" d="M507.08,660.81c-17.62,3.2-16,19.22,3.21,16C489.46,689.64,478.25,660.81,507.08,660.81Z" transform="translate(-96.33 -196.96)"/><path class="cls-1" d="M477.78,643.19c-15.52,2.82-14.11,16.93,2.82,14.11C462.26,668.59,452.38,643.19,477.78,643.19Z" transform="translate(-96.33 -196.96)"/><path class="cls-1" d="M449.32,658.92c-13.43,2.45-12.21,14.66,2.45,12.22C435.89,680.91,427.34,658.92,449.32,658.92Z" transform="translate(-96.33 -196.96)"/><path class="cls-1" d="M446.88,627.17c-13.43,2.44-12.21,14.66,2.44,12.21C433.45,649.15,424.9,627.17,446.88,627.17Z" transform="translate(-96.33 -196.96)"/><path class="cls-1" d="M420.45,644.78c-14.36-.89-16.19,11.91-.58,13.11C401.17,663.88,398,639.24,420.45,644.78Z" transform="translate(-96.33 -196.96)"/><path class="cls-1" d="M552.8,671.09c-13.26.4-13.86,12.31.58,12.09C536.71,690.26,531.68,667.9,552.8,671.09Z" transform="translate(-96.33 -196.96)"/></g><g id="Layer_4" data-name="Layer 4"><path class="cls-5" d="M493.17,438.68c-13.05-14.06-43.56-36.66-81-49.68a181.58,181.58,0,0,0-41.46-9.4c-6.7-7.93-20.34-20.21-46.92-32.64-12.82,26.92-38.45,30.28-52.86,30.28-2.36,1.57-4.71,5.44-6.49,9-31.9,5.14-59.92,12.49-80.52,20.49-20.43-4.79-62.75-16.11-87.6-32.67,3.21,19.22,27.23,44.85,38.45,56.06,0,0-35.24,20.54-38.45,48.35,18.4-10.28,69.11-16.82,86.75-18.84,8.33,4.19,17.8,8.53,28.08,12.84,8.72,17.12,29.14,18.86,53.37,34.54,6.87-1.72,14.67-5.74,20.42-9.1a446.15,446.15,0,0,0,49.45,10.74c-3.17,4.77-8.54,13.24-7.4,14.38,2.41,3.61,23.8-6.34,34.29-11.52,3.6.2,7.13.31,10.56.31a234.84,234.84,0,0,0,33.9-2.35C475.65,499.29,500,459.1,500,449.32,500,447.23,497.59,443.44,493.17,438.68Z" transform="translate(-96.33 -196.96)"/></g><g id="Layer_4_copy_2" data-name="Layer 4 copy 2"><path class="cls-5" d="M376.66,388.45s-8-20.51-52.86-41.49c-12.82,26.92-38.45,30.28-52.86,30.28-4.81,3.2-9.62,16-9.62,16Z" transform="translate(-96.33 -196.96)"/><path class="cls-5" d="M293.36,492.57s-16,11.22-28.83,14.42c-27.23-17.62-49.66-17.62-56.07-41.65C238.9,468.55,293.36,492.57,293.36,492.57Z" transform="translate(-96.33 -196.96)"/><path class="cls-5" d="M367.05,508.59S330.2,527.82,327,523c-1.6-1.6,9.61-17.62,9.61-17.62Z" transform="translate(-96.33 -196.96)"/><path class="cls-5" d="M134.78,430.1C123.56,418.89,99.54,393.26,96.33,374c33.64,22.42,99.32,35.24,99.32,35.24l-6.41,49.66s-70.48,7-92.91,19.51C99.54,450.64,134.78,430.1,134.78,430.1Z" transform="translate(-96.33 -196.96)"/><path class="cls-6" d="M147.59,433.31c0,17.62,139.36,78.49,224.26,78.49a234.84,234.84,0,0,0,33.9-2.35c6.67-16.37,15-41.15,15.71-63.7Z" transform="translate(-96.33 -196.96)"/><path class="cls-7" d="M421.51,442.92c0-16.65-4.76-37.61-9.33-53.92-17.62-6.14-36.76-10.16-56.35-10.16-107.32,0-208.24,32-208.24,54.47l273.87,12.44C421.48,444.81,421.51,443.86,421.51,442.92Z" transform="translate(-96.33 -196.96)"/><path class="cls-5" d="M493.17,438.68c-13.05-14.06-43.56-36.66-81-49.68,4.57,16.31,9.33,37.27,9.33,53.92,0,.94,0,1.89-.05,2.83-.67,22.55-9,47.33-15.71,63.7C475.65,499.29,500,459.1,500,449.32,500,447.23,497.59,443.44,493.17,438.68Z" transform="translate(-96.33 -196.96)"/><path class="cls-5" d="M387.87,471.75c0-10.26-43.25,12.82-65.68,12.82,12.82,4.8,32,8,40.05,9.61C370.25,489.37,387.87,478.16,387.87,471.75Z" transform="translate(-96.33 -196.96)"/><ellipse class="cls-4" cx="352.01" cy="237.55" rx="9.21" ry="13.22"/><ellipse class="cls-5" cx="354.27" cy="237.55" rx="4.61" ry="7.34"/><path class="cls-5" d="M349.88,401c-15.37-1.81-18.1,11.83-1.4,14.05C328,420.33,326.06,393.67,349.88,401Z" transform="translate(-96.33 -196.96)"/><path class="cls-5" d="M335.21,432.77c-15.41-1.57-17.93,12.12-1.19,14.08C313.63,452.49,311.25,425.84,335.21,432.77Z" transform="translate(-96.33 -196.96)"/><path class="cls-5" d="M306.23,402.24c-17.62,3.2-16,19.22,3.2,16C288.61,431.07,277.39,402.24,306.23,402.24Z" transform="translate(-96.33 -196.96)"/><path class="cls-5" d="M306.23,447.09c-17.62,3.21-16,19.22,3.2,16C288.61,475.93,277.39,447.09,306.23,447.09Z" transform="translate(-96.33 -196.96)"/><path class="cls-5" d="M276.92,429.47c-15.52,2.82-14.11,16.93,2.83,14.11C261.4,454.87,251.52,429.47,276.92,429.47Z" transform="translate(-96.33 -196.96)"/><path class="cls-5" d="M248.47,445.2c-13.43,2.45-12.21,14.66,2.44,12.22C235,467.19,226.49,445.2,248.47,445.2Z" transform="translate(-96.33 -196.96)"/><path class="cls-5" d="M246,413.45c-13.44,2.45-12.21,14.66,2.44,12.22C232.59,435.43,224.05,413.45,246,413.45Z" transform="translate(-96.33 -196.96)"/><path class="cls-5" d="M219.59,431.06c-14.36-.88-16.18,11.92-.58,13.11C200.31,450.16,197.1,425.52,219.59,431.06Z" transform="translate(-96.33 -196.96)"/><path class="cls-5" d="M352,457.37c-13.26.4-13.86,12.31.57,12.09C335.85,476.54,330.83,454.18,352,457.37Z" transform="translate(-96.33 -196.96)"/></g><g id="Layer_1_copy_4" data-name="Layer 1 copy 4"><path class="cls-8" d="M1010.2,497.22c-13-14-43.34-36.47-80.59-49.43a180.27,180.27,0,0,0-41.25-9.35c-6.66-7.9-20.24-20.11-46.69-32.48-12.75,26.79-38.25,30.13-52.6,30.13-2.34,1.56-4.68,5.41-6.46,8.93-31.74,5.12-59.61,12.44-80.12,20.39-20.32-4.76-62.43-16-87.16-32.51,3.19,19.13,27.1,44.63,38.26,55.79,0,0-35.07,20.43-38.26,48.11,18.31-10.23,68.76-16.74,86.32-18.75,8.29,4.17,17.71,8.49,27.94,12.78,8.68,17,29,18.77,53.1,34.37,6.85-1.71,14.6-5.71,20.32-9.06a444.28,444.28,0,0,0,49.22,10.69c-3.17,4.75-8.51,13.17-7.37,14.31,2.39,3.59,23.68-6.31,34.12-11.46,3.58.19,7.09.3,10.51.3a235.62,235.62,0,0,0,33.73-2.33c69.55-10.11,93.78-50.11,93.78-59.83C1017,505.73,1014.6,502,1010.2,497.22Z" transform="translate(-96.33 -196.96)"/></g><g id="Layer_1_copy" data-name="Layer 1 copy"><path class="cls-8" d="M894.27,447.25s-8-20.42-52.6-41.29c-12.75,26.79-38.25,30.13-52.6,30.13-4.78,3.19-9.56,15.94-9.56,15.94Z" transform="translate(-96.33 -196.96)"/><path class="cls-8" d="M811.38,550.85S795.45,562,782.69,565.2c-27.09-17.53-49.41-17.53-55.78-41.44C757.19,526.94,811.38,550.85,811.38,550.85Z" transform="translate(-96.33 -196.96)"/><path class="cls-8" d="M884.71,566.79S848,585.92,844.86,581.14c-1.6-1.6,9.56-17.54,9.56-17.54Z" transform="translate(-96.33 -196.96)"/><path class="cls-8" d="M653.59,488.69c-11.16-11.16-35.07-36.66-38.26-55.79C648.81,455.22,714.16,468,714.16,468l-6.38,49.41s-70.13,7-92.45,19.42C618.52,509.12,653.59,488.69,653.59,488.69Z" transform="translate(-96.33 -196.96)"/><path class="cls-9" d="M666.34,491.88c0,17.53,138.67,78.1,223.15,78.1a235.62,235.62,0,0,0,33.73-2.33c6.64-16.29,15-40.95,15.62-63.39Z" transform="translate(-96.33 -196.96)"/><path class="cls-10" d="M938.9,501.44c0-16.56-4.74-37.42-9.29-53.65-17.53-6.1-36.57-10.11-56.06-10.11-106.79,0-207.21,31.88-207.21,54.2l272.5,12.38C938.87,503.32,938.9,502.38,938.9,501.44Z" transform="translate(-96.33 -196.96)"/><path class="cls-8" d="M1010.2,497.22c-13-14-43.34-36.47-80.59-49.43,4.55,16.23,9.29,37.09,9.29,53.65,0,.94,0,1.88-.06,2.82-.66,22.44-9,47.1-15.62,63.39,69.55-10.11,93.78-50.11,93.78-59.83C1017,505.73,1014.6,502,1010.2,497.22Z" transform="translate(-96.33 -196.96)"/><path class="cls-8" d="M905.43,530.13c0-10.2-43,12.75-65.35,12.75,12.75,4.79,31.87,8,39.84,9.57C887.89,547.67,905.43,536.51,905.43,530.13Z" transform="translate(-96.33 -196.96)"/><ellipse class="cls-4" cx="869.26" cy="296.11" rx="9.17" ry="13.15"/><ellipse class="cls-8" cx="871.51" cy="296.11" rx="4.58" ry="7.31"/><path class="cls-8" d="M867.63,459.69c-15.3-1.8-18,11.78-1.4,14C845.88,479,843.92,452.44,867.63,459.69Z" transform="translate(-96.33 -196.96)"/><path class="cls-8" d="M853,491.35c-15.33-1.57-17.84,12.06-1.18,14C831.56,511,829.18,484.45,853,491.35Z" transform="translate(-96.33 -196.96)"/><path class="cls-8" d="M824.19,461c-17.54,3.18-15.94,19.12,3.18,15.94C806.65,489.66,795.5,461,824.19,461Z" transform="translate(-96.33 -196.96)"/><path class="cls-8" d="M824.19,505.6c-17.54,3.18-15.94,19.12,3.18,15.94C806.65,534.29,795.5,505.6,824.19,505.6Z" transform="translate(-96.33 -196.96)"/><path class="cls-8" d="M795,488.06c-15.45,2.81-14,16.85,2.81,14C779.58,513.34,769.75,488.06,795,488.06Z" transform="translate(-96.33 -196.96)"/><path class="cls-8" d="M766.72,503.72c-13.37,2.43-12.16,14.58,2.43,12.15C753.35,525.59,744.84,503.72,766.72,503.72Z" transform="translate(-96.33 -196.96)"/><path class="cls-8" d="M764.29,472.12c-13.37,2.43-12.16,14.59,2.43,12.16C750.92,494,742.41,472.12,764.29,472.12Z" transform="translate(-96.33 -196.96)"/><path class="cls-8" d="M738,489.64c-14.29-.88-16.1,11.86-.57,13C718.8,508.65,715.6,484.13,738,489.64Z" transform="translate(-96.33 -196.96)"/><path class="cls-8" d="M869.68,515.82c-13.19.4-13.79,12.25.58,12C853.66,534.9,848.67,512.65,869.68,515.82Z" transform="translate(-96.33 -196.96)"/></g><g id="Layer_1_copy_3" data-name="Layer 1 copy 3"><path class="cls-11" d="M835,283.09c-12.25-13.21-40.9-34.42-76.05-46.66A171,171,0,0,0,720,227.61c-6.29-7.45-19.1-19-44.06-30.65-12,25.28-36.1,28.43-49.64,28.43-2.21,1.48-4.41,5.11-6.09,8.44-30,4.82-56.26,11.73-75.61,19.23-19.19-4.49-58.93-15.12-82.26-30.67,3,18.05,25.57,42.11,36.1,52.64,0,0-33.09,19.29-36.1,45.4,17.27-9.65,64.89-15.79,81.46-17.69,7.82,3.93,16.71,8,26.37,12.06,8.19,16.08,27.36,17.71,50.11,32.43,6.46-1.61,13.78-5.39,19.18-8.54a419.5,419.5,0,0,0,46.44,10.09c-3,4.47-8,12.42-6.95,13.5,2.26,3.39,22.35-6,32.2-10.82,3.38.18,6.69.29,9.91.29a220.44,220.44,0,0,0,31.84-2.21c65.63-9.53,88.5-47.28,88.5-56.46C841.39,291.11,839.12,287.56,835,283.09Z" transform="translate(-96.33 -196.96)"/></g><g id="Layer_1_copy_2" data-name="Layer 1 copy 2"><path class="cls-11" d="M725.57,235.92s-7.52-19.26-49.64-39c-12,25.28-36.1,28.43-49.64,28.43-4.51,3-9,15.05-9,15.05Z" transform="translate(-96.33 -196.96)"/><path class="cls-11" d="M647.35,333.7s-15,10.53-27.08,13.53c-25.57-16.54-46.63-16.54-52.64-39.1C596.21,311.13,647.35,333.7,647.35,333.7Z" transform="translate(-96.33 -196.96)"/><path class="cls-11" d="M716.54,348.74s-34.6,18.05-37.6,13.54c-1.51-1.51,9-16.55,9-16.55Z" transform="translate(-96.33 -196.96)"/><path class="cls-11" d="M498.43,275c-10.53-10.53-33.09-34.59-36.1-52.64,31.59,21.05,93.26,33.09,93.26,33.09l-6,46.63s-66.19,6.56-87.25,18.32C465.34,294.32,498.43,275,498.43,275Z" transform="translate(-96.33 -196.96)"/><path class="cls-12" d="M510.47,278c0,16.55,130.86,73.71,210.58,73.71a220.44,220.44,0,0,0,31.84-2.21c6.26-15.37,14.12-38.64,14.74-59.81Z" transform="translate(-96.33 -196.96)"/><path class="cls-13" d="M767.68,287.07c0-15.64-4.46-35.32-8.76-50.64-16.54-5.75-34.52-9.53-52.91-9.53C605.23,226.9,510.47,257,510.47,278l257.16,11.69C767.66,288.84,767.68,288,767.68,287.07Z" transform="translate(-96.33 -196.96)"/><path class="cls-11" d="M835,283.09c-12.25-13.21-40.9-34.42-76.05-46.66,4.3,15.32,8.76,35,8.76,50.64,0,.88,0,1.77,0,2.66-.62,21.17-8.48,44.44-14.74,59.81,65.63-9.53,88.5-47.28,88.5-56.46C841.39,291.11,839.12,287.56,835,283.09Z" transform="translate(-96.33 -196.96)"/><path class="cls-11" d="M736.1,314.14c0-9.63-40.62,12-61.68,12,12,4.51,30.09,7.52,37.61,9C719.55,330.69,736.1,320.16,736.1,314.14Z" transform="translate(-96.33 -196.96)"/><ellipse class="cls-4" cx="696.55" cy="82.21" rx="8.65" ry="12.41"/><ellipse class="cls-11" cx="698.67" cy="82.21" rx="4.32" ry="6.89"/><path class="cls-11" d="M700.42,247.67c-14.43-1.7-17,11.11-1.32,13.19C679.9,265.86,678.05,240.82,700.42,247.67Z" transform="translate(-96.33 -196.96)"/><path class="cls-11" d="M686.64,277.54c-14.47-1.48-16.84,11.38-1.11,13.22C666.38,296.06,664.15,271,686.64,277.54Z" transform="translate(-96.33 -196.96)"/><path class="cls-11" d="M659.43,248.87c-16.55,3-15,18.05,3,15C642.88,276,632.35,248.87,659.43,248.87Z" transform="translate(-96.33 -196.96)"/><path class="cls-11" d="M659.43,291c-16.55,3-15,18.05,3,15C642.88,318.06,632.35,291,659.43,291Z" transform="translate(-96.33 -196.96)"/><path class="cls-11" d="M631.91,274.44c-14.57,2.65-13.25,15.9,2.65,13.25C617.34,298.29,608.06,274.44,631.91,274.44Z" transform="translate(-96.33 -196.96)"/><path class="cls-11" d="M605.19,289.21c-12.61,2.3-11.46,13.77,2.3,11.47C592.58,309.86,584.55,289.21,605.19,289.21Z" transform="translate(-96.33 -196.96)"/><path class="cls-11" d="M602.9,259.4c-12.61,2.29-11.47,13.76,2.29,11.47C590.29,280,582.26,259.4,602.9,259.4Z" transform="translate(-96.33 -196.96)"/><path class="cls-11" d="M578.08,275.93c-13.49-.83-15.2,11.19-.55,12.31C560,293.87,557,270.73,578.08,275.93Z" transform="translate(-96.33 -196.96)"/><path class="cls-11" d="M702.37,300.64c-12.46.37-13,11.56.53,11.35C687.25,318.64,682.53,297.64,702.37,300.64Z" transform="translate(-96.33 -196.96)"/></g></svg>