<svg id="fishing_boat" xmlns="http://www.w3.org/2000/svg" viewBox="0 0 1008.18 664.08"><defs><style>.cls-1{fill:#fbb03b;}.cls-2{fill:#333;}.cls-3{fill:#4d4d4d;}.cls-4,.cls-5{fill:none;stroke:#f0e033;stroke-miterlimit:10;}.cls-4{stroke-width:3.16px;}.cls-5{stroke-width:3.32px;}.cls-6{fill:#d7671e;}.cls-7{fill:#c9632b;}.cls-8{fill:#f0e033;}</style></defs><g id="Layer_38_copy" data-name="Layer 38 copy"><path class="cls-1" d="M923.77,884.72l2-5.9L949,808.75h0l7-21.26,9.56-.2,9.47-16.65-100.19,3.42V723.27l30.77-7.85,1.57-6.31-31.55,3.15,4.11-19.19L923,688.6l4.73-9.47-47.33,1.58,10-60H882l-28.23,154-18.36.63,11-91.83-8,1.28L831.86,727l-44.37-14.12,2,8.08,39.34,16.38-1,12.51-28.95-9.39-.17,1.66.11.06-.11,3.1L826,760.06l-6.12,15.87-220.3,7.52L586.92,795l76-1.54,1.18,16.18H664l6.94,94.67c-39.51,1.68-79.43,2.9-119,3.78L531.14,672.78l217.51,3.84a9.46,9.46,0,0,0,17.19.31l24.07.42,10-6.11-33.19-.58a8.27,8.27,0,0,0,0-1,9.47,9.47,0,0,0-18.93,0c0,.23,0,.45,0,.67-56.49-1-147.89-2.6-217.3-3.8l-2.64-30-12-14.24,3.24,44-16.32-.28L487.22,490.89l46.56-7.4,19.34-20.17-68.2,1.73-3.71-41.51-15.77-30.62,4.92,72.5-41.21,1.05,25.24,29.64,17.87-2.84L484,665.73c-28.34-.49-47.11-.8-48.52-.8l2.67,6.21,46.27.82L500.51,909q-10.06.15-20.08.28L462.28,795.88l-78.89-66.26-3.15,22.09L441.53,809l7.81,62.15-11.46-14.24a12.44,12.44,0,0,0,.73-4.2A12.62,12.62,0,0,0,426,840.06a11.31,11.31,0,0,0-1.55.11L224,591.09a10.25,10.25,0,1,0-15.73-12.91,10.25,10.25,0,0,0,5.33,18.9L345.4,761.8,193,739.4a9.46,9.46,0,0,0-16.45-.5,9.46,9.46,0,1,0,12.78,13.35L352.91,773.8l60.83,73.3a12.61,12.61,0,0,0,16,19.29L452,893.21l-1.1,16.43c-154.83,1.45-293.89-1.26-368.08-1.26.71,6.54,1.58,12.84,2.57,18.94h3.15A374.92,374.92,0,0,0,111,1006.94h0c7.87,20.89,13.58,35.85,18.36,50.06H940.08s53.8-51.22,100-119.11l1.17-.65c13.94-20,26.89-41.45,37.07-63.27,1.23-.36,2.46-.72,3.67-1.09,3.34-7.23,6.38-14.5,9-21.78C1047.12,865.46,989.51,876.4,923.77,884.72ZM519.62,672.58,537,908.39l-12.48.24L503.4,672.29Z" transform="translate(-82.83 -392.92)"/></g><g id="Layer_38" data-name="Layer 38"><polygon class="cls-2" points="768.85 393.05 799.13 227.83 804.36 227.83 794.39 290.94 841.73 289.37 840.15 295.68 794.39 300.41 789.66 322.5 821.22 319.34 822.79 322.5 788.87 331.16 788.87 389.97 768.85 393.05"/><polygon class="cls-2" points="745.75 416.04 760.38 293.82 755.5 291.93 748.41 338.05 704.65 319.97 706.62 328.05 745.96 344.43 744.64 361.02 716.01 347.55 715.85 352.37 743.13 367.14 727.86 406.77 745.75 416.04"/><polygon class="cls-2" points="395.23 524.45 376.29 406.12 300.56 336.7 297.4 358.79 358.7 416.04 367.56 486.58 130.16 191.54 127.01 199.43 265.85 372.99 96.39 348.08 96.39 358 270.08 380.87 369.18 500.29 367.56 524.45 395.23 524.45"/><circle class="cls-2" cx="98.61" cy="354.05" r="9.47"/><circle class="cls-2" cx="130.95" cy="193.91" r="10.26"/><circle class="cls-2" cx="340" cy="462.92" r="12.62"/><polygon class="cls-2" points="418.89 533.91 382.6 0 395.23 33.77 439.4 529.18 418.89 533.91"/><polygon class="cls-2" points="455.26 531.01 433.09 229.41 441.96 246.81 466.79 528.32 455.26 531.01"/><circle class="cls-2" cx="674.49" cy="279.9" r="9.47"/><polygon class="cls-2" points="346.31 73.55 470.29 70.39 450.95 90.57 371.56 103.19 346.31 73.55"/><path class="cls-2" d="M435.46,664.93c6.35,0,364.46,6.31,364.46,6.31l-10,6.11-351.78-6.21Z" transform="translate(-82.83 -392.92)"/><path class="cls-3" d="M435.46,664.93c6.35,0,364.46,6.31,364.46,6.31l-6.85,3L441.29,668Z" transform="translate(-82.83 -392.92)"/><polygon class="cls-3" points="398.38 521.29 379.45 402.96 300.56 336.7 300.56 355.63 361.86 412.89 370.72 483.43 133.32 188.39 130.16 196.28 269 369.83 99.55 344.92 99.55 354.84 273.24 377.72 372.33 497.13 370.72 521.29 398.38 521.29"/><polyline class="cls-4" points="101.76 350.9 130.95 190.76 395.23 73.55 671.33 275.17"/><line class="cls-4" x1="101.76" y1="357.21" x2="343.16" y2="461.98"/><line class="cls-4" x1="101.76" y1="350.9" x2="50" y2="525.25"/><path class="cls-4" d="M426,852.68C380.24,833.75,250.86,717,209.44,581.31" transform="translate(-82.83 -392.92)"/><path class="cls-5" d="M474.9,453.85s-26.32,313.28,35,504.54" transform="translate(-82.83 -392.92)"/><line class="cls-5" x1="343.16" y1="461.98" x2="361.79" y2="526.03"/><line class="cls-4" x1="99.55" y1="354.84" x2="101.76" y2="521.29"/><polyline class="cls-4" points="133.32 188.39 395.23 84.26 668.75 275.06"/><path class="cls-4" d="M181.44,747S381.11,869.74,429.58,854.9" transform="translate(-82.83 -392.92)"/><polygon class="cls-3" points="772 389.89 802.28 227.83 807.52 227.83 797.55 287.79 844.88 286.21 840.15 295.68 797.55 297.25 792.82 319.34 824.37 316.19 822.79 322.5 792.03 328 792.03 386.82 772 389.89"/><polygon class="cls-3" points="748.9 412.89 763.54 290.66 755.5 291.93 751.57 334.89 704.65 319.97 706.62 324.9 749.11 341.27 747.79 357.86 716.01 347.55 715.85 349.21 746.28 363.98 731.01 403.62 748.9 412.89"/><circle class="cls-3" cx="101.76" cy="350.9" r="9.47"/><circle class="cls-3" cx="134.11" cy="190.76" r="10.26"/><circle class="cls-3" cx="343.16" cy="459.76" r="12.62"/><polygon class="cls-3" points="422.05 530.76 382.6 0 398.38 30.61 442.56 526.03 422.05 530.76"/><polygon class="cls-3" points="458.42 527.86 433.09 229.41 445.12 243.65 469.95 525.17 458.42 527.86"/><circle class="cls-3" cx="674.49" cy="276.74" r="9.47"/><polygon class="cls-3" points="346.31 73.55 470.29 70.39 450.95 87.41 371.56 100.04 346.31 73.55"/><polygon class="cls-6" points="590.65 546.12 823.33 544.83 842.9 485.9 866.17 415.83 581.17 416.69 590.65 546.12"/><polygon class="cls-7" points="874.25 391.36 579.82 396.94 581.41 418.69 865.49 417.83 865.62 417.44 874.25 391.36"/><polygon class="cls-1" points="882.75 394.37 504.09 402.06 516.71 390.53 892.21 377.72 882.75 394.37"/><path class="cls-6" d="M1041.23,937.24c14.17-20.38,27.33-42.17,37.59-64.36C846.51,943.58,275,927.47,88.55,927.32c5.3,32.62,14.24,59.1,23,81C298.32,1039.05,796.24,1075.49,1041.23,937.24Z" transform="translate(-82.83 -392.92)"/><path class="cls-7" d="M940.08,1057s58.56-55.74,105.92-128c-246.92,147.77-746.75,110.82-935,77.94,7.87,20.89,13.58,35.85,18.36,50.06Z" transform="translate(-82.83 -392.92)"/><path class="cls-1" d="M1082,872.88c3.34-7.23,6.38-14.5,9-21.78C863.82,925.41,269,908.38,82.83,908.38c.71,6.54,1.58,12.84,2.57,18.94C271.87,927.47,849.66,943.58,1082,872.88Z" transform="translate(-82.83 -392.92)"/><path class="cls-8" d="M297.7,966.93a47.32,47.32,0,0,0-94.59,0c0,.52,0,1.05,0,1.58a47.34,47.34,0,0,0,94.67,0C297.74,968,297.71,967.45,297.7,966.93Zm-71-1.58a23.67,23.67,0,0,1,47.33,0c0,.53-.05,1.06-.08,1.58s.08,1.05.08,1.58a23.67,23.67,0,0,1-47.33,0c0-.53,0-1.06.08-1.58S226.74,965.88,226.74,965.35Z" transform="translate(-82.83 -392.92)"/><path class="cls-1" d="M250.4,944.84A23.66,23.66,0,0,1,274,966.93c0-.52.08-1,.08-1.58a23.67,23.67,0,0,0-47.33,0c0,.53,0,1.06.08,1.58A23.65,23.65,0,0,1,250.4,944.84Z" transform="translate(-82.83 -392.92)"/><path class="cls-1" d="M797.55,814.08a15,15,0,0,0-15,15v1.58a15,15,0,1,1,30,0v-1.58A15,15,0,0,0,797.55,814.08Z" transform="translate(-82.83 -392.92)"/><path class="cls-1" d="M840.15,812.08a15,15,0,0,0-15,15v1.58a15,15,0,0,1,30,0v-1.58A15,15,0,0,0,840.15,812.08Z" transform="translate(-82.83 -392.92)"/><path class="cls-1" d="M881.17,811.66a15,15,0,0,0-15,15v1.58a15,15,0,0,1,30,0v-1.58A15,15,0,0,0,881.17,811.66Z" transform="translate(-82.83 -392.92)"/><path class="cls-8" d="M797.55,815.66a15,15,0,0,0-15,15v33.13a15,15,0,0,0,30,0V830.65A15,15,0,0,0,797.55,815.66Z" transform="translate(-82.83 -392.92)"/><path class="cls-8" d="M840.15,813.66a15,15,0,0,0-15,15v33.13a15,15,0,0,0,30,0V828.65A15,15,0,0,0,840.15,813.66Z" transform="translate(-82.83 -392.92)"/><path class="cls-8" d="M881.17,813.24a15,15,0,0,0-15,15v33.13a15,15,0,0,0,30,0V828.23A15,15,0,0,0,881.17,813.24Z" transform="translate(-82.83 -392.92)"/><path class="cls-1" d="M714.83,814.91a15,15,0,0,0-15,15v1.58a15,15,0,0,1,30,0V829.9A15,15,0,0,0,714.83,814.91Z" transform="translate(-82.83 -392.92)"/><path class="cls-1" d="M755.85,814.49a15,15,0,0,0-15,15v1.57a15,15,0,0,1,30,0v-1.57A15,15,0,0,0,755.85,814.49Z" transform="translate(-82.83 -392.92)"/><path class="cls-8" d="M714.83,816.49a15,15,0,0,0-15,15v33.13a15,15,0,0,0,30,0V831.48A15,15,0,0,0,714.83,816.49Z" transform="translate(-82.83 -392.92)"/><path class="cls-8" d="M755.85,816.07a15,15,0,0,0-15,15v33.14a15,15,0,1,0,30,0V831.05A15,15,0,0,0,755.85,816.07Z" transform="translate(-82.83 -392.92)"/><path class="cls-8" d="M465.72,966.87a47.32,47.32,0,0,0-94.59,0c0,.52,0,1,0,1.58a47.34,47.34,0,0,0,94.67,0C465.76,967.92,465.74,967.39,465.72,966.87Zm-71-1.58a23.67,23.67,0,0,1,47.33,0c0,.53,0,1.06-.08,1.58s.08,1,.08,1.58a23.67,23.67,0,0,1-47.33,0c0-.54,0-1.06.08-1.58S394.76,965.82,394.76,965.29Z" transform="translate(-82.83 -392.92)"/><path class="cls-1" d="M418.43,944.78A23.65,23.65,0,0,1,442,966.87c0-.52.08-1,.08-1.58a23.67,23.67,0,0,0-47.33,0c0,.53,0,1.06.08,1.58A23.65,23.65,0,0,1,418.43,944.78Z" transform="translate(-82.83 -392.92)"/><path class="cls-8" d="M633.72,963.87a47.32,47.32,0,0,0-94.59,0c0,.52,0,1,0,1.58a47.34,47.34,0,0,0,94.67,0C633.76,964.92,633.74,964.39,633.72,963.87Zm-71-1.58a23.67,23.67,0,0,1,47.33,0c0,.53,0,1.06-.08,1.58s.08,1,.08,1.58a23.67,23.67,0,0,1-47.33,0c0-.54,0-1.06.08-1.58S562.76,962.82,562.76,962.29Z" transform="translate(-82.83 -392.92)"/><path class="cls-1" d="M586.43,941.78A23.65,23.65,0,0,1,610,963.87c0-.52.08-1,.08-1.58a23.67,23.67,0,0,0-47.33,0c0,.53,0,1.06.08,1.58A23.65,23.65,0,0,1,586.43,941.78Z" transform="translate(-82.83 -392.92)"/></g></svg>